<svg id="Component_26_2" data-name="Component 26 – 2" xmlns="http://www.w3.org/2000/svg" width="23.367" height="20.771" viewBox="0 0 23.367 20.771">
  <path id="Path_1409" data-name="Path 1409" d="M1596.684,1508.47a22.453,22.453,0,0,1-12.217-1.836,6.268,6.268,0,0,0-4.432,10.7l.114.114,7.558,7.557a.923.923,0,0,0,1.306,0l7.557-7.557h0l.112-.112a6.266,6.266,0,0,0,0-8.863Z" transform="translate(-1575.153 -1504.504)" fill="#f58b96"/>
  <g id="Group_1065" data-name="Group 1065">
    <g id="Group_1062" data-name="Group 1062" transform="translate(9.237)">
      <path id="Path_1410" data-name="Path 1410" d="M1603.435,1511.953a.924.924,0,0,1-.654-1.576l.113-.114a4.42,4.42,0,1,0-6.25-6.252l-.113.113a.924.924,0,0,1-1.307-1.306l.114-.113a6.268,6.268,0,1,1,8.864,8.864l-.112.112A.921.921,0,0,1,1603.435,1511.953Z" transform="translate(-1594.954 -1500.869)" fill="#868cac"/>
    </g>
    <g id="Group_1063" data-name="Group 1063">
      <path id="Path_1411" data-name="Path 1411" d="M1572.556,1511.953a.921.921,0,0,1-.653-.271l-.114-.113a6.268,6.268,0,0,1,8.864-8.864l.113.112a.924.924,0,0,1-1.3,1.308l-.114-.113a4.42,4.42,0,1,0-6.253,6.25l.114.113a.924.924,0,0,1-.653,1.577Z" transform="translate(-1569.953 -1500.869)" fill="#868cac"/>
    </g>
    <g id="Group_1064" data-name="Group 1064" transform="translate(1.679 9.236)">
      <path id="Path_1412" data-name="Path 1412" d="M1582.979,1535.274a.921.921,0,0,1-.653-.271l-7.558-7.558a.924.924,0,0,1,1.306-1.306l6.9,6.9,6.9-6.9a.924.924,0,0,1,1.306,1.306l-7.557,7.558A.921.921,0,0,1,1582.979,1535.274Z" transform="translate(-1574.498 -1525.869)" fill="#868dad"/>
    </g>
  </g>
</svg>
