<svg id="Group_1085" data-name="Group 1085" xmlns="http://www.w3.org/2000/svg" width="22.566" height="25.567" viewBox="0 0 22.566 25.567">
  <g id="Group_1082" data-name="Group 1082" transform="translate(0 6.072)">
    <path id="Path_1423" data-name="Path 1423" d="M1568.088,2395.025h14.79a2.732,2.732,0,0,1,2.694,3.182l-2.638,12.228a2.731,2.731,0,0,1-2.693,2.281h-9.515a2.731,2.731,0,0,1-2.694-2.281l-2.638-12.228A2.732,2.732,0,0,1,1568.088,2395.025Z" transform="translate(-1563.044 -2393.222)" fill="#a1c3e2"/>
    <path id="Path_1424" data-name="Path 1424" d="M1572.145,2407.205h-9.515a3.381,3.381,0,0,1-3.342-2.816l-2.635-12.214c0-.01,0-.021-.006-.031a3.391,3.391,0,0,1,3.345-3.95h14.79a3.391,3.391,0,0,1,3.345,3.95c0,.01,0,.021-.006.031l-2.634,12.214A3.381,3.381,0,0,1,1572.145,2407.205Zm-14.2-15.293,2.634,12.212c0,.01,0,.02.006.031a2.065,2.065,0,0,0,2.043,1.729h9.515a2.065,2.065,0,0,0,2.043-1.729c0-.011,0-.021.006-.031l2.634-12.212a2.072,2.072,0,0,0-2.045-2.4h-14.79a2.072,2.072,0,0,0-2.045,2.4Zm19.529.123h0Z" transform="translate(-1556.6 -2388.194)" fill="#868dad"/>
  </g>
  <g id="Group_1084" data-name="Group 1084" transform="translate(4.334)">
    <g id="Group_1083" data-name="Group 1083" transform="translate(0 0)">
      <path id="Path_1425" data-name="Path 1425" d="M1585.26,2375.4a.66.66,0,0,1-.66-.66v-3.1a5.132,5.132,0,0,0-10.265,0v3.1a.66.66,0,0,1-1.32,0v-3.1a6.453,6.453,0,1,1,12.906,0v3.1A.66.66,0,0,1,1585.26,2375.4Z" transform="translate(-1573.015 -2365.195)" fill="#868dad"/>
    </g>
  </g>
</svg>
