<svg xmlns="http://www.w3.org/2000/svg" width="12.493" height="12.493" viewBox="0 0 12.493 12.493">
  <g id="Group_1086" data-name="Group 1086" transform="translate(0 0)">
    <circle id="Ellipse_258" data-name="Ellipse 258" cx="4.827" cy="4.827" r="4.827" transform="translate(1.496 1.906)" fill="#b7d432"/>
    <g id="Group_1088" data-name="Group 1088" transform="translate(0 0)">
      <g id="Group_1086-2" data-name="Group 1086">
        <path id="Path_1426" data-name="Path 1426" d="M1775.553,1509.792a5.6,5.6,0,1,1,3.959-9.555h0a5.6,5.6,0,0,1-3.959,9.555Zm0-10.059a4.463,4.463,0,1,0,3.156,1.307h0A4.434,4.434,0,0,0,1775.553,1499.733Z" transform="translate(-1769.954 -1498.597)" fill="#868cac"/>
      </g>
      <g id="Group_1087" data-name="Group 1087" transform="translate(8.588 8.589)">
        <path id="Path_1427" data-name="Path 1427" d="M1811.1,1540.312a.566.566,0,0,1-.4-.166l-2.769-2.769a.568.568,0,0,1,.8-.8l2.769,2.769a.568.568,0,0,1-.4.969Z" transform="translate(-1807.764 -1536.408)" fill="#868cac"/>
      </g>
    </g>
  </g>
</svg>
