<svg xmlns="http://www.w3.org/2000/svg" width="16.167" height="17.586" viewBox="0 0 16.167 17.586">
  <g id="Group_1099" data-name="Group 1099" transform="translate(-1969.954 -1498.597)">
    <circle id="Ellipse_259" data-name="Ellipse 259" cx="4.332" cy="4.332" r="4.332" transform="translate(1975.221 1500.854)" fill="#ffcb08"/>
    <g id="Group_1101" data-name="Group 1101" transform="translate(1969.954 1498.597)">
      <g id="Group_1099-2" data-name="Group 1099" transform="translate(0 8.704)">
        <path id="Path_1437" data-name="Path 1437" d="M1985.321,1534.7a.8.8,0,0,1-.8-.8,6.484,6.484,0,1,0-12.969,0,.8.8,0,1,1-1.6,0,8.083,8.083,0,0,1,16.167,0A.8.8,0,0,1,1985.321,1534.7Z" transform="translate(-1969.954 -1525.817)" fill="#868dad"/>
      </g>
      <g id="Group_1100" data-name="Group 1100" transform="translate(2.926 0)">
        <path id="Path_1438" data-name="Path 1438" d="M1984.261,1508.912a5.157,5.157,0,1,1,5.158-5.157A5.163,5.163,0,0,1,1984.261,1508.912Zm0-8.716a3.559,3.559,0,1,0,3.559,3.558A3.562,3.562,0,0,0,1984.261,1500.2Z" transform="translate(-1979.104 -1498.597)" fill="#868dad"/>
      </g>
    </g>
  </g>
</svg>
