<svg id="Group_1828" data-name="Group 1828" xmlns="http://www.w3.org/2000/svg" width="45.843" height="48.345" viewBox="0 0 45.843 48.345">
  <path id="Path_1555" data-name="Path 1555" d="M1170.79,2039.651a15.35,15.35,0,0,1,30.7,0V2056h-30.7Z" transform="translate(-1161.438 -2015.562)" fill="#ffcb08"/>
  <g id="Group_1181" data-name="Group 1181" transform="translate(0 4.922)">
    <g id="Group_1179" data-name="Group 1179" transform="translate(5.026)">
      <path id="Path_1556" data-name="Path 1556" d="M1196.807,2053.489a1.272,1.272,0,0,1-1.272-1.272V2034.7a15.35,15.35,0,0,0-30.7,0v17.521a1.272,1.272,0,0,1-2.544,0V2034.7a17.895,17.895,0,0,1,35.79,0v17.521A1.272,1.272,0,0,1,1196.807,2053.489Z" transform="translate(-1162.29 -2016.801)" fill="#838aa9"/>
    </g>
    <g id="Group_1180" data-name="Group 1180" transform="translate(0 34.247)">
      <path id="Path_1557" data-name="Path 1557" d="M1196.984,2086.642h-43.3a1.272,1.272,0,0,1,0-2.545h43.3a1.272,1.272,0,0,1,0,2.545Z" transform="translate(-1152.413 -2084.097)" fill="#838aa9"/>
    </g>
  </g>
  <g id="Group_1182" data-name="Group 1182" transform="translate(21.649)">
    <path id="Path_1558" data-name="Path 1558" d="M1196.226,2014.6a1.272,1.272,0,0,1-1.272-1.272V2008.4a1.272,1.272,0,1,1,2.545,0v4.922A1.272,1.272,0,0,1,1196.226,2014.6Z" transform="translate(-1194.954 -2007.129)" fill="#838aa9"/>
  </g>
  <g id="Group_1183" data-name="Group 1183" transform="translate(15.715 39.867)">
    <path id="Path_1559" data-name="Path 1559" d="M1190.5,2093.947a7.214,7.214,0,0,1-7.207-7.207,1.272,1.272,0,0,1,2.545,0,4.662,4.662,0,1,0,9.324,0,1.272,1.272,0,0,1,2.544,0A7.214,7.214,0,0,1,1190.5,2093.947Z" transform="translate(-1183.293 -2085.468)" fill="#838aa9"/>
  </g>
</svg>
